<svg xmlns="http://www.w3.org/2000/svg" viewBox="0 0 1000 1000">
	<path d="M680 460C653 497 658 516 660 550L680 820 700 550C702 515 707 497 680 460M320 460C293 497 298 516 300 550L320 820 340 550C342 515 347 497 320 460M650 432C631 432 615 429 610 416 605 429 598 432 572 432S517 429 517 391 541 347 550 346 594 343 586 381C620 372 636 393 638 407 691 374 714 390 772 432ZM230 432C275 399 301 370 358 406 363 385 386 374 410 381 405 338 446 346 450 347S480 353 480 391 452 432 428 432 394 429 390 416C385 429 369 432 350 432ZM0 426C76 519 131 515 186 484S225 443 270 443H350C369 443 385 450 390 463 395 450 404 445 428 445S471 453 471 462 455 480 444 485C491 504 487 522 469 528 481 679 487 896 500 923 513 896 521 678 530 528 513 522 509 504 556 485 545 480 526 471 526 462S546 445 572 445 605 450 610 463C615 450 631 443 650 443H730C775 443 759 452 814 484S924 519 1000 426C877 497 826 398 795 374S757 339 695 309 595 243 593 226 584 201 577 203 559 216 567 256 549 323 540 328C512 294 515 217 500 187 485 217 488 294 460 328 451 323 425 298 433 257S430 205 423 203 409 208 407 225 368 278 305 309 245 340 205 374 123 497 0 426M675 78Q664 173 633 202 658 229 675 285 692 229 717 202 686 173 675 78M325 78Q314 173 283 202 308 229 325 285 342 229 367 202 336 173 325 78" fill="#DB7575"/>
</svg>